# AST/ASF file generated using VICON BodyLanguage
# -----------------------------------------------
:version 1.10
:name VICON
:units
  mass 1.0
  length 0.45
  angle deg
:documentation
   .ast/.asf automatically generated from VICON data using
   VICON BodyBuilder and BodyLanguage model FoxedUp or BRILLIANT.MOD
:root
   order TX TY TZ RX RY RZ
   axis XYZ
   position 0 0 0  
   orientation 0 0 0 
:bonedata
  begin
     id 1 
     name lhipjoint
     direction 0.661853 -0.702389 0.261917 
     length 2.64193 
     axis 0 0 0  XYZ
  end
  begin
     id 2 
     name lfemur
     direction 0.34202 -0.939693 0  
     length 7.01722  
     axis 0 0 20  XYZ
    dof rx ry rz
    limits (-160.0 20.0)
           (-70.0 70.0)
           (-60.0 70.0)
  end
  begin
     id 3 
     name ltibia
     direction 0.34202 -0.939693 0   
     length 8.25008   
     axis 0 0 20   XYZ
    dof rx
    limits (-10.0 170.0)
  end
  begin
     id 4 
     name lfoot
     direction 0.0709916 -0.195048 0.978221   
     length 2.31941   
     axis -90 7.62852e-016 20   XYZ
    dof rx rz
    limits (-45.0 90.0)
           (-70.0 20.0)
  end
  begin
     id 5 
     name ltoes
     direction 1.53586e-011 -4.22017e-011 1   
     length 1.16486   
     axis -90 7.62852e-016 20   XYZ
    dof rx
    limits (-90.0 20.0)
  end
  begin
     id 6 
     name rhipjoint
     direction -0.638185 -0.721362 0.268992   
     length 2.57244  
     axis 0 0 0  XYZ 
  end
  begin
     id 7 
     name rfemur
     direction -0.34202 -0.939693 0   
     length 7.07017   
     axis 0 0 -20   XYZ
    dof rx ry rz
    limits (-160.0 20.0)
           (-70.0 70.0)
           (-70.0 60.0)
  end
  begin
     id 8 
     name rtibia
     direction -0.34202 -0.939693 0   
     length 8.20386   
     axis 0 0 -20   XYZ
    dof rx
    limits (-10.0 170.0)
 end
 begin
     id 9 
     name rfoot
     direction -0.0822429 -0.225961 0.970658   
     length 2.32215  
     axis -90 -7.62852e-016 -20   XYZ
    dof rx rz
    limits (-45.0 90.0)
           (-20.0 70.0)
  end
  begin
     id 10 
     name rtoes
     direction -1.53597e-011 -4.21689e-011 1   
     length 1.16333   
     axis -90 -7.62852e-016 -20   XYZ
    dof rx
    limits (-90.0 20.0)
  end
  begin
     id 11 
     name lowerback
     direction -0.0131557 0.998589 -0.0514484   
     length 2.14993   
     axis 0 0 0   XYZ
    dof rx ry rz
    limits (-20.0 45.0)
           (-30.0 30.0)
           (-30.0 30.0)
  end
  begin
     id 12 
     name upperback
     direction -0.000776481 0.999993 0.00352685   
     length 2.15301   
     axis 0 0 0   XYZ
    dof rx ry rz
    limits (-20.0 45.0)
           (-30.0 30.0)
           (-30.0 30.0)
  end
  begin
     id 13 
     name thorax
     direction 0.00438186 0.999609 0.0276143   
     length 2.15424   
     axis 0 0 0   XYZ
    dof rx ry rz
    limits (-20.0 45.0)
           (-30.0 30.0)
           (-30.0 30.0)
  end
  begin
     id 14 
     name lowerneck
     direction -0.0488006 0.998094 0.0377807   
     length 1.90481   
     axis 0 0 0   XYZ
    dof rx ry rz
    limits (-20.0 45.0)
           (-30.0 30.0)
           (-30.0 30.0)
  end
  begin
     id 15 
     name upperneck
     direction 0.0443769 0.990702 -0.12861   
     length 1.91305   
     axis 0 0 0   XYZ
    dof rx ry rz
    limits (-20.0 45.0)
           (-30.0 30.0)
           (-30.0 30.0)
  end
  begin
     id 16
     name head
     direction 0.0165599 0.998647 -0.0492982  
     length 1.92369  
     axis 0 0 0   XYZ
    dof rx ry rz
    limits (-20.0 45.0)
           (-30.0 30.0)
           (-30.0 30.0)
  end
  begin
     id 17 
     name lclavicle
     direction 0.911936 0.410197 -0.0105506  
     length 3.52622  
     axis 0 0 0   XYZ
    dof ry rz
    limits (-20.0 10.0)
           (0.0 20.0)
  end
  begin
     id 18 
     name lhumerus
     direction 1 -4.48974e-011 -2.48591e-028   
     length 5.47651   
     axis 180 -30 -90   XYZ
    dof rx ry rz
    limits (-60.0 90.0)
           (-90.0 90.0)
           (-90.0 90.0)
  end
  begin
     id 19
     name lradius
     direction 1 -4.48938e-011 -4.40099e-027   
     length 3.09058   
     axis 180 -30 -90   XYZ
    dof rx
    limits (-10.0 170.0)
  end
  begin
     id 20
     name lwrist
     direction 1 -4.49042e-011 -2.99852e-027   
     length 1.54529   
     axis 1.95339e-015 90 90   XYZ
    dof ry
    limits (-180.0 0.0)
 end
  begin
     id 21 
     name lhand
     direction 1 -4.48815e-011 -5.98193e-027   
     length 0.771611   
     axis 3.82337e-015 90 90   XYZ
    dof rx rz
    limits (-90.0 90.0)
           (-45.0 45.0)
  end
  begin
     id 22 
     name lfingers
     direction 1 -4.49034e-011 -1.1993e-026   
     length 0.622093   
     axis 7.64668e-015 90 90   XYZ
    dof rx
    limits (0.0 90.0)
  end
  begin
     id 23
     name lthumb
     direction 0.707107 -6.34867e-011 0.707107   
     length 0.893204   
     axis -90 45 -1.62303e-014   XYZ
    dof rx rz
    limits (-45.0 45.0)
           (-45.0 45.0)
  end
  begin
     id 24 
     name rclavicle
     direction -0.93442 0.355634 -0.0195692   
     length 3.62463  
     axis 0 0 0   XYZ 
    dof ry rz
    limits (-10.0 20.0)
           (-20.0 0.0)
  end
  begin
     id 25 
     name rhumerus
     direction -1 -4.48957e-011 -1.19147e-027  
     length 5.14182   
     axis 180 30 90   XYZ
    dof rx ry rz
    limits (-90.0 60.0)
           (-90.0 90.0)
           (-90.0 90.0)
  end
  begin
     id 26 
     name rradius
     direction -1 -4.48952e-011 -3.81062e-027   
     length 3.35565   
     axis 180 30 90   XYZ
    dof rx
    limits (-10.0 170.0)
  end
  begin
     id 27 
     name rwrist
     direction -1 -4.48973e-011 -2.99621e-027   
     length 1.67782   
     axis 1.95339e-015 -90 -90   XYZ
    dof ry
    limits (-180.0 0.0)
  end
  begin
     id 28
     name rhand
     direction -1 -4.48895e-011 -5.98727e-027   
     length 0.801042   
     axis 3.82337e-015 -90 -90   XYZ
    dof rx rz
    limits (-90.0 90.0)
           (-45.0 45.0)
  end
  begin
     id 29
     name rfingers
     direction -1 -4.49065e-011 -1.19972e-026   
     length 0.645821   
     axis 7.64668e-015 -90 -90   XYZ
    dof rx
    limits (0.0 90.0)
  end
  begin
     id 30
     name rthumb
     direction -0.707107 -6.34957e-011 0.707107   
     length 0.927273   
     axis -90 -45 1.62303e-014   XYZ
    dof rx rz
    limits (-45.0 45.0)
           (-45.0 45.0)
  end
:hierarchy
  begin
    root lhipjoint rhipjoint lowerback
    lhipjoint lfemur
    lfemur ltibia
    ltibia lfoot
    lfoot ltoes
    rhipjoint rfemur
    rfemur rtibia
    rtibia rfoot
    rfoot rtoes
    lowerback upperback
    upperback thorax
    thorax lowerneck lclavicle rclavicle
    lowerneck upperneck
    upperneck head
    lclavicle lhumerus
    lhumerus lradius
    lradius lwrist
    lwrist lhand lthumb
    lhand lfingers
    rclavicle rhumerus
    rhumerus rradius
    rradius rwrist
    rwrist rhand rthumb
    rhand rfingers
  end

#!OML:ASF E:\Style4\Style4.ASF
:FULLY-SPECIFIED
:DEGREES
429
root 0.151254 16.5333 -1.41167 7.4536 -1.41876 2.32755
lowerback 14.3909 1.43527 -1.57361
upperback 1.52351 1.65982 0.186901
thorax -6.50627 0.852281 0.760413
lowerneck 4.26506 -3.48633 -5.16428
upperneck -5.66045 -4.80801 3.38489
head -2.33106 -2.38911 2.14087
rclavicle 3.97569e-015 7.55382e-015
rhumerus -7.78093 30.1961 -78.6216
rradius 49.619
rwrist -30.9979
rhand -18.6118 28.8035
rfingers 7.12502
rthumb 7.67984 -1.03707
lclavicle 3.97569e-015 7.55382e-015
lhumerus -6.61208 -37.7467 78.7089
lradius 58.4043
lwrist 17.145
lhand -11.0982 22.539
lfingers 7.12502
lthumb 14.9259 51.9812
rfemur -36.8882 2.80991 15.1961
rtibia 59.5759
rfoot -27.4586 -14.672
rtoes -15.5542
lfemur -35.9637 -0.745217 -21.8482
ltibia 58.7838
lfoot -28.6731 8.25733
ltoes -16.8456
430
root 0.1507 16.5291 -1.41797 7.45214 -1.39186 2.43773
lowerback 14.4591 1.40647 -1.71525
upperback 1.54529 1.59676 0.167406
thorax -6.52247 0.824939 0.831223
lowerneck 4.24622 -3.45092 -5.25013
upperneck -5.66727 -4.76211 3.4398
head -2.32942 -2.36588 2.17278
rclavicle -6.75868e-015 -2.38542e-015
rhumerus -7.71095 30.1834 -78.7205
rradius 49.7907
rwrist -31.1125
rhand -18.5307 28.8401
rfingers 7.12502
rthumb 7.75811 -0.997574
lclavicle -6.75868e-015 -2.38542e-015
lhumerus -6.59473 -37.5354 78.8198
lradius 58.5482
lwrist 17.236
lhand -11.1607 22.5813
lfingers 7.12502
lthumb 14.8656 52.028
rfemur -36.9616 2.76567 15.0743
rtibia 59.6597
rfoot -27.45 -14.7027
rtoes -15.5792
lfemur -36.0575 -0.791123 -21.9693
ltibia 58.874
lfoot -28.6492 8.34656
ltoes -17.0007
431
root 0.14867 16.5244 -1.42457 7.48628 -1.34731 2.4515
lowerback 14.4871 1.38026 -1.76736
upperback 1.5668 1.55443 0.181856
thorax -6.51563 0.805683 0.884135
lowerneck 4.1725 -3.43213 -5.34061
upperneck -5.62364 -4.7348 3.52009
head -2.29952 -2.35279 2.21135
rclavicle 8.94531e-015 -4.37326e-015
rhumerus -7.63424 30.1758 -78.7924
rradius 49.9689
rwrist -31.2283
rhand -18.4154 28.8028
rfingers 7.12502
rthumb 7.86945 -1.03075
lclavicle 8.94531e-015 -4.37326e-015
lhumerus -6.53744 -37.3097 78.9348
lradius 58.6869
lwrist 17.3677
lhand -11.3031 22.5428
lfingers 7.12502
lthumb 14.7285 51.9996
rfemur -37.0574 2.7665 15.0636
rtibia 59.7325
rfoot -27.509 -14.6066
rtoes -15.0653
lfemur -36.1903 -0.812778 -21.9765
ltibia 58.9712
lfoot -28.6257 8.49506
ltoes -17.6047
432
root 0.147929 16.5201 -1.42986 7.53092 -1.32434 2.3254
lowerback 14.5122 1.3649 -1.62648
upperback 1.5717 1.55756 0.20385
thorax -6.5212 0.803748 0.826722
lowerneck 4.09588 -3.43503 -5.40058
upperneck -5.52381 -4.73445 3.6052
head -2.24963 -2.35442 2.24518
rclavicle 6.85807e-015 -1.03368e-014
rhumerus -7.63527 30.1746 -78.8959
rradius 50.1939
rwrist -31.4056
rhand -18.4402 28.7241
rfingers 7.12502
rthumb 7.84547 -1.11038
lclavicle 6.85807e-015 -1.03368e-014
lhumerus -6.53607 -37.2018 79.0272
lradius 58.897
lwrist 17.4677
lhand -11.255 22.4412
lfingers 7.12502
lthumb 14.7748 51.8946
rfemur -37.1522 2.81112 15.2071
rtibia 59.7876
rfoot -27.5526 -14.5965
rtoes -14.8544
lfemur -36.2971 -0.807436 -21.8261
ltibia 59.0559
lfoot -28.6516 8.40906
ltoes -17.4465
433
root 0.148663 16.5167 -1.43334 7.56399 -1.35778 2.23982
lowerback 14.5237 1.35535 -1.53821
upperback 1.58149 1.55956 0.215225
thorax -6.51516 0.802421 0.78836
lowerneck 4.0888 -3.42779 -5.38456
upperneck -5.50418 -4.72507 3.57851
head -2.24311 -2.34944 2.23255
rclavicle 2.48481e-015 1.19271e-015
rhumerus -7.61191 30.2481 -78.9894
rradius 50.4058
rwrist -31.5377
rhand -18.5457 28.7325
rfingers 7.12502
rthumb 7.74369 -1.1057
lclavicle 2.48481e-015 1.19271e-015
lhumerus -6.56317 -37.0785 79.0863
lradius 59.1745
lwrist 17.5055
lhand -10.8659 22.3757
lfingers 7.12502
lthumb 15.1496 51.8012
rfemur -37.2307 2.86487 15.2936
rtibia 59.8232
rfoot -27.4831 -14.6732
rtoes -15.3272
lfemur -36.3664 -0.784168 -21.7345
ltibia 59.1319
lfoot -28.7019 8.37014
ltoes -17.2381
434
root 0.14877 16.5143 -1.43701 7.59945 -1.39432 2.24016
lowerback 14.5246 1.35039 -1.56239
upperback 1.60189 1.54974 0.223425
thorax -6.49449 0.798134 0.812923
lowerneck 4.14449 -3.4254 -5.4425
upperneck -5.61408 -4.72871 3.56194
head -2.28885 -2.3488 2.24214
rclavicle -3.08116e-015 -2.78299e-015
rhumerus -7.58103 30.3111 -79.0525
rradius 50.6281
rwrist -31.658
rhand -18.5957 28.8029
rfingers 7.12502
rthumb 7.69543 -1.03707
lclavicle -3.08116e-015 -2.78299e-015
lhumerus -6.59091 -36.9682 79.1773
lradius 59.3666
lwrist 17.6117
lhand -10.8641 21.8426
lfingers 7.12502
lthumb 15.1514 51.268
rfemur -37.3138 2.90545 15.2856
rtibia 59.8546
rfoot -27.4635 -14.7
rtoes -15.5739
lfemur -36.4331 -0.781842 -21.7307
ltibia 59.1736
lfoot -28.7109 8.33986
ltoes -17.0632
435
root 0.149256 16.5129 -1.44058 7.64032 -1.44512 2.26513
lowerback 14.5253 1.35552 -1.59546
upperback 1.61765 1.55032 0.210003
thorax -6.47861 0.798902 0.817486
lowerneck 4.17319 -3.44048 -5.53496
upperneck -5.66502 -4.75334 3.60953
head -2.30718 -2.3602 2.27729
rclavicle -1.97791e-014 -2.38542e-015
rhumerus -7.59335 30.386 -79.1433
rradius 50.8439
rwrist -31.7955
rhand -18.5618 28.887
rfingers 7.12502
rthumb 7.72807 -0.951758
lclavicle -1.97791e-014 -2.38542e-015
lhumerus -6.63935 -36.9661 79.2464
lradius 59.5033
lwrist 17.9572
lhand -11.1825 21.23
lfingers 7.12502
lthumb 14.8447 50.6783
rfemur -37.4058 2.92183 15.248
rtibia 59.8829
rfoot -27.4746 -14.6625
rtoes -15.3564
lfemur -36.505 -0.764982 -21.7586
ltibia 59.1909
lfoot -28.6892 8.35379
ltoes -17.1328
436
root 0.149896 16.5137 -1.44306 7.68679 -1.48727 2.28264
lowerback 14.4963 1.35989 -1.6218
upperback 1.63051 1.55167 0.198373
thorax -6.44928 0.799873 0.820548
lowerneck 4.20065 -3.45056 -5.53292
upperneck -5.66357 -4.76845 3.60521
head -2.3111 -2.36783 2.27669
rclavicle -1.3418e-014 5.1684e-015
rhumerus -7.61604 30.4986 -79.2163
rradius 51.0786
rwrist -31.9404
rhand -18.4843 28.9121
rfingers 7.12502
rthumb 7.80288 -0.923944
lclavicle -1.3418e-014 5.1684e-015
lhumerus -6.69 -36.9763 79.3
lradius 59.6866
lwrist 18.2141
lhand -11.339 21.2721
lfingers 7.12502
lthumb 14.6939 50.7314
rfemur -37.4919 2.94172 15.2162
rtibia 59.9051
rfoot -27.4508 -14.6762
rtoes -15.2674
lfemur -36.5779 -0.727273 -21.7864
ltibia 59.1894
lfoot -28.6462 8.34326
ltoes -17.2243
437
root 0.150879 16.5142 -1.44492 7.70822 -1.52318 2.32522
lowerback 14.4588 1.35879 -1.67963
upperback 1.66613 1.54153 0.192692
thorax -6.39166 0.795831 0.85046
lowerneck 4.23518 -3.43674 -5.50337
upperneck -5.69808 -4.75274 3.55259
head -2.33128 -2.35889 2.25561
rclavicle 6.55989e-015 -6.75868e-015
rhumerus -7.57945 30.6649 -79.2272
rradius 51.3031
rwrist -32.1523
rhand -18.5057 28.9236
rfingers 7.12502
rthumb 7.78226 -0.913195
lclavicle 6.55989e-015 -6.75868e-015
lhumerus -6.68491 -36.8902 79.3357
lradius 59.9118
lwrist 18.1738
lhand -11.2566 21.6231
lfingers 7.12502
lthumb 14.7733 51.0766
rfemur -37.5405 2.93766 15.1546
rtibia 59.9289
rfoot -27.4621 -14.5973
rtoes -15.1585
lfemur -36.6029 -0.711775 -21.8423
ltibia 59.1699
lfoot -28.6359 8.32991
ltoes -17.05
438
root 0.152362 16.5122 -1.4465 7.72417 -1.54917 2.34854
lowerback 14.4417 1.35541 -1.69187
upperback 1.68534 1.53485 0.182729
thorax -6.36162 0.792476 0.848755
lowerneck 4.24666 -3.40992 -5.48168
upperneck -5.70571 -4.71833 3.51262
head -2.33885 -2.34096 2.23825
rclavicle -3.8763e-015 0
rhumerus -7.6018 30.7709 -79.2989
rradius 51.5301
rwrist -32.2584
rhand -18.6333 28.8763
rfingers 7.12502
rthumb 7.65914 -0.965035
lclavicle -3.8763e-015 0
lhumerus -6.70265 -36.877 79.3827
lradius 60.0767
lwrist 18.184
lhand -11.108 21.7044
lfingers 7.12502
lthumb 14.9164 51.1473
rfemur -37.583 2.92482 15.1195
rtibia 59.9477
rfoot -27.4436 -14.5671
rtoes -15.2444
lfemur -36.5876 -0.73055 -21.8757
ltibia 59.1458
lfoot -28.6646 8.36081
ltoes -17.026
439
root 0.151446 16.5108 -1.4483 7.7383 -1.57677 2.38203
lowerback 14.4492 1.35825 -1.72976
upperback 1.69096 1.53128 0.16526
thorax -6.36015 0.791413 0.852325
lowerneck 4.29241 -3.41306 -5.48868
upperneck -5.73629 -4.72506 3.51531
head -2.35693 -2.34418 2.24282
rclavicle 2.78299e-015 -7.95139e-016
rhumerus -7.65226 30.9158 -79.3869
rradius 51.7086
rwrist -32.4088
rhand -18.7785 29.0055
rfingers 7.12502
rthumb 7.51895 -0.840895
lclavicle 2.78299e-015 -7.95139e-016
lhumerus -6.77655 -37.0121 79.4156
lradius 60.2162
lwrist 18.4757
lhand -11.326 21.4143
lfingers 7.12502
lthumb 14.7064 50.8726
rfemur -37.6238 2.93211 15.0858
rtibia 59.9605
rfoot -27.3936 -14.642
rtoes -15.4771
lfemur -36.568 -0.706116 -21.9178
ltibia 59.1218
lfoot -28.6556 8.37087
ltoes -17.0604
440
root 0.148814 16.5139 -1.44752 7.86998 -1.62144 2.39911
lowerback 14.2978 1.3659 -1.80876
upperback 1.6754 1.53243 0.170432
thorax -6.29525 0.793868 0.905042
lowerneck 4.30423 -3.41889 -5.44634
upperneck -5.725 -4.73422 3.45712
head -2.35678 -2.34807 2.21627
rclavicle -2.18663e-015 3.97569e-016
rhumerus -7.6944 31.1054 -79.4268
rradius 51.9274
rwrist -32.6414
rhand -18.7021 29.0635
rfingers 7.12502
rthumb 7.59267 -0.780218
lclavicle -2.18663e-015 3.97569e-016
lhumerus -6.86251 -37.0575 79.4553
lradius 60.3558
lwrist 18.6581
lhand -11.4391 21.1295
lfingers 7.12502
lthumb 14.5974 50.5958
rfemur -37.7729 2.92846 15.0682
rtibia 59.9667
rfoot -27.3805 -14.6473
rtoes -15.6015
lfemur -36.7108 -0.662692 -21.9253
ltibia 59.1134
lfoot -28.6539 8.36204
ltoes -16.998
